<svg width="155" height="49" viewBox="0 0 155 49" fill="none" xmlns="http://www.w3.org/2000/svg">
<g clip-path="url(#clip0)">
<path fill-rule="evenodd" clip-rule="evenodd" d="M24.1659 49.2844L24.3109 49.2367L24.4559 49.189L24.6009 49.1413L24.7459 49.0936L24.8909 49.0458L25.0359 48.9981L25.1809 48.9504L25.3258 48.9027L25.4708 48.8073L25.6158 48.7119L25.7608 48.6164L25.9058 48.521C27.3558 47.6622 27.7424 47.2328 27.6941 45.4197L27.6458 44.9426L27.5974 44.5132L27.5008 44.0838L27.5491 43.6544L27.4041 43.3204L27.2591 43.0342L27.0658 42.7956L26.8725 42.557L26.5825 42.3662L26.3408 42.1754L26.0508 42.0322L25.7608 41.8891L25.4225 41.7937L25.0842 41.6982L24.7459 41.6505L24.3592 41.6028L23.9726 41.5551H23.5859L23.1993 41.5074H22.7643H22.3293H21.8943H21.411H20.9277H20.4443C17.8828 41.6028 18.5594 40.9826 19.0427 38.9309L19.1877 38.263L19.3327 37.595L19.4777 36.9271L19.6227 36.2591L19.816 35.782L19.961 35.114L20.106 34.446L20.251 33.7781L20.396 33.1101L20.541 32.4421C20.976 30.7722 21.9426 31.0108 22.5226 29.1977L22.7643 28.3389L22.9093 27.5278L23.0059 26.7167L23.0543 25.9533V25.19L23.0059 24.4743V23.854L22.8609 23.1861L22.7159 22.5658L22.5226 21.9456L22.2809 21.3253L22.0393 20.705L21.7976 20.0848L21.5076 19.5123L21.266 18.892L20.976 18.3195L20.686 17.7469L20.3477 17.1744L20.0577 16.6018L19.7677 16.0293L19.4777 15.4567L19.236 14.8842L18.9944 14.3117L18.8011 13.7391L18.6077 13.1189L18.4627 12.4986L18.3661 11.8784L18.3177 11.2104V10.5424L18.3661 9.87447V9.82676V9.77905V9.73134V9.68362V9.63591L18.4144 9.5882L18.4627 9.54049L18.5111 9.49278L18.5594 9.44506L18.6077 9.39735L18.6561 9.34964L18.7044 9.30193L18.7527 9.20651L18.8011 9.11108L18.8494 9.06337L18.8977 9.01566L18.9461 8.96795L18.9944 8.92024L19.0427 8.87252L19.0911 8.82481L19.1394 8.7771L19.1877 8.72939L19.236 8.68168L19.2844 8.63397L19.381 8.58625L19.4294 8.53854L19.526 8.49083L19.6227 8.44312L19.7194 8.39541L19.816 8.34769L19.9127 8.29998L20.0094 8.25227L20.0577 8.20456L20.106 8.15685L20.1544 8.10914L20.2027 8.06142L20.251 8.01371L20.2993 7.966L20.3477 7.91829L20.4443 7.87058L20.5893 7.82286L20.7343 7.77515L20.9277 7.72744L21.121 7.67973L21.3143 7.58431L21.5076 7.48888L21.6043 7.44117L21.701 7.39346C23.1993 6.63007 22.9093 3.29025 21.6526 2.90855L21.2176 2.76542L20.7827 2.38372L20.5893 2.33601L20.396 2.2883L20.2027 2.24059L20.0094 2.14516L19.816 2.09745L19.6227 2.00203L19.381 1.9066L19.1877 1.81118L18.9944 1.71576L18.8011 1.62033L18.6077 1.52491L18.4144 1.42949L18.2211 1.33406L18.0278 1.23864L17.8344 1.14322C16.2395 0.0935563 16.6261 -0.812968 15.0795 1.23864L14.5479 1.95432L14.0645 2.62228L13.6296 3.29025L13.2429 3.95821L12.8563 4.57846L12.6146 5.24643L12.3246 5.86668L12.0346 6.48694L11.793 7.10719L11.5513 7.72744L11.358 8.34769L11.1646 8.96795L11.0196 9.5882L10.8746 10.2085L10.7297 10.8287L10.633 11.449L10.488 11.9261L10.3913 12.594L10.2947 13.262L10.2463 13.93L10.198 14.6456L10.1497 15.3613L10.1013 16.1247L10.053 16.8881L10.0047 17.6992L9.95635 18.558L9.90801 19.4168C9.66636 23.0906 8.74805 22.375 5.75148 24.0926L4.92984 24.6174L4.20486 25.19L3.52822 25.8102L2.94824 26.4305L2.41659 27.1461L1.93327 27.8141L1.49828 28.5298L1.15996 29.2932L0.82164 30.0566L0.579981 30.8199L0.386654 31.631L0.193327 32.4421L0.0966635 33.301L0.0483318 34.1598L0 35.0186V35.9251L0.0483318 36.8316L0.144995 37.7382L0.241659 38.6447L0.386654 39.5512L0.579981 40.5054L0.773308 41.4597L0.966635 42.4139L1.20829 43.3681C2.46492 47.9008 3.14157 47.2328 7.68475 47.2805H8.16807H8.60306H9.03804H9.47303H9.90801H10.343H10.778H11.213H11.648H12.0829H12.5663L13.0496 47.2328L13.5812 47.1851L14.1129 47.1374C14.7895 47.2328 19.8644 46.9465 20.831 47.2805L20.8793 47.4236L20.9277 47.5668L20.976 47.7099L21.0243 47.8531L21.0727 47.9962L21.121 48.1393L21.1693 48.2825C21.3626 49.8092 23.1509 49.5707 24.1659 49.2844ZM15.7078 41.7459C15.7078 42.1276 15.8528 43.1296 15.3212 43.1296H15.1762H15.0312H14.8862C14.2095 43.1296 14.5962 42.2708 14.6929 41.7937L14.7412 41.4597V41.1257V40.7917V40.4577V40.1237L14.6929 39.7898L14.6445 39.4558L14.5962 39.1218L14.5479 38.7878L14.4995 38.4061L14.4029 38.0721L14.3062 37.7382L14.2095 37.4042L14.1129 37.0702L14.0162 36.7839L13.8712 36.4976L13.7262 36.2114L13.5812 35.9251L13.4362 35.6388L13.2912 35.3049C12.2763 33.4918 11.4546 33.3487 13.7262 32.7761L14.0162 32.7284L14.3062 32.6807L14.5962 32.633C17.1094 32.0127 16.1428 34.1121 16.0461 35.6388L15.9978 36.2591L15.9495 36.9748V37.6427L15.9012 38.3107L15.8528 38.9787L15.8045 39.6466L15.7562 40.3146L15.7078 40.9826V41.7459Z" fill="black"/>
<path fill-rule="evenodd" clip-rule="evenodd" d="M19.4294 3.33977L19.2361 3.24435L19.0427 3.14892L18.9461 3.10121L18.8494 3.0535V3.00579L18.7527 2.95808L18.6561 2.91036L18.5594 2.86265L18.4627 2.81494H18.3661H18.2694H18.1728H18.0761H18.0278H17.9794H17.9311L17.8828 2.86265L17.8344 2.91036L17.7861 2.95808L17.7378 3.00579L17.6894 3.0535L17.6411 3.14892L17.5928 3.24435V3.33977V3.43519V3.53062L17.6411 3.57833L17.6894 3.62604L17.7378 3.67375L17.7861 3.72146L17.8828 3.81689L17.9794 3.8646L18.0761 3.91231H18.1728H18.2694H18.3661H18.4627H18.5594H18.6561H18.7527H18.8494H18.9461H19.0427H19.1394H19.2361H19.3327C20.2027 3.67375 19.961 3.62604 19.4294 3.33977Z" fill="white"/>
<path fill-rule="evenodd" clip-rule="evenodd" d="M18.946 3.91238H18.8976H18.8493L18.801 3.86467H18.7526L18.7043 3.81696H18.656L18.6077 3.76925V3.72154H18.5593V3.67382L18.511 3.62611V3.5784V3.53069V3.48298V3.43527V3.38755V3.33984V3.29213L18.5593 3.24442V3.19671L18.6077 3.14899L18.656 3.10128L18.7043 3.05357H18.7526L18.801 3.00586H18.8493H18.8976H18.946H18.9943H19.0426H19.091L19.1393 3.05357H19.1876L19.236 3.10128L19.2843 3.14899L19.3326 3.19671V3.24442L19.381 3.29213V3.33984V3.38755V3.43527V3.48298V3.53069V3.5784V3.62611L19.3326 3.67382V3.72154H19.2843V3.76925L19.236 3.81696H19.1876V3.86467H19.1393H19.091L19.0426 3.91238H18.9943H18.946Z" fill="#010005"/>
<path fill-rule="evenodd" clip-rule="evenodd" d="M21.0727 24.4286L20.976 23.9514L20.8793 23.522L20.7343 23.0926L20.5893 22.6632L20.4443 22.2338L20.2993 21.8044L20.1544 21.375L19.961 20.9456L19.7677 20.5162L19.5744 20.0868L19.381 19.6574L19.1877 19.228L18.9944 18.7986L18.8011 18.4169L18.6077 18.0352L18.3661 17.6535L18.1728 17.2718L17.9794 16.8424L17.7378 16.413C16.7228 14.5045 15.5145 11.8326 16.2395 15.7927L16.3361 16.2221L16.4328 16.6515L16.5295 17.0809L16.6745 17.5103L16.8195 17.9398L16.9645 18.3692L17.1095 18.7986L17.3028 19.228L17.4961 19.6574L17.6894 20.0868L17.8828 20.5162L18.0761 20.9456L18.2694 21.375L18.4627 21.8044L18.7044 22.2338L18.9461 22.6632L19.1877 23.0926L19.4294 23.522L19.671 23.9514L19.9127 24.3808C21.0243 26.2893 21.6526 27.2913 21.0727 24.4286Z" fill="white"/>
<path fill-rule="evenodd" clip-rule="evenodd" d="M68.3895 27.4305H74.7693C74.576 28.9572 73.9477 30.15 72.8844 31.0088C71.8211 31.8677 70.4678 32.2971 68.9212 32.2971C67.8095 32.2971 66.8429 32.1062 66.0213 31.7722C65.1996 31.3905 64.523 31.2474 63.8947 31.2474C63.363 31.2474 62.8314 31.486 62.3964 31.9154C61.9614 32.3448 61.7197 32.8696 61.7197 33.4421C61.7197 34.3964 62.3964 35.2552 63.7497 35.9709C65.1029 36.6865 66.8912 37.0682 69.1145 37.0682C70.8544 37.0682 72.4011 36.8297 73.851 36.3048C75.2526 35.78 76.5092 35.0166 77.5242 34.0624C78.5392 33.1082 79.3608 31.9154 79.8925 30.484C80.4725 29.1004 80.7141 27.5259 80.7141 25.7605C80.7141 24.0429 80.4241 22.4684 79.7958 21.0848C79.2158 19.6534 78.3459 18.4606 77.3309 17.5064C76.2676 16.5045 75.0593 15.7411 73.6577 15.2162C72.2561 14.6914 70.7094 14.4051 69.0662 14.4051C66.9396 14.4051 65.2479 14.7391 63.943 15.4548C62.638 16.1705 61.9614 16.9816 61.9614 17.8404C61.9614 18.4129 62.203 18.9378 62.638 19.3672C63.073 19.7966 63.653 20.0351 64.2813 20.0351C64.8613 20.0351 65.5863 19.892 66.3596 19.6057C67.1329 19.3195 68.0512 19.1763 69.0178 19.1763C70.5161 19.1763 71.8211 19.558 72.836 20.3214C73.8993 21.0848 74.5276 22.0867 74.721 23.375H68.3895C66.6496 23.375 65.7796 24.0429 65.7796 25.3788C65.7796 26.0468 66.0213 26.5239 66.4562 26.9533C66.9396 27.2396 67.5679 27.4305 68.3895 27.4305ZM94.682 14.4051C92.9904 14.4051 91.6371 14.0234 90.6221 13.3078C89.5588 12.5921 89.0755 11.7333 89.0755 10.8268C89.0755 10.3019 89.2205 9.87252 89.5588 9.58625C89.8972 9.25227 90.2838 9.10913 90.8638 9.10913C91.3954 9.10913 91.7821 9.20455 91.9754 9.44311C92.1687 9.63396 92.3621 9.87252 92.5554 10.1588C92.7487 10.3973 92.942 10.6359 93.232 10.8745C93.522 11.0653 94.0053 11.2084 94.682 11.2084C95.3586 11.2084 95.842 11.113 96.1319 10.8745C96.4219 10.6836 96.6636 10.4451 96.8086 10.1588C96.9536 9.92023 97.1469 9.68167 97.3402 9.44311C97.5336 9.25227 97.9202 9.10913 98.4519 9.10913C99.0319 9.10913 99.4668 9.25227 99.8052 9.58625C100.143 9.92023 100.288 10.3019 100.288 10.8268C100.288 11.781 99.7568 12.5921 98.7419 13.3555C97.7269 14.0234 96.3736 14.4051 94.682 14.4051ZM99.8052 23.2795V33.4899C99.8052 35.8754 100.723 37.0682 102.56 37.0682C104.397 37.0682 105.315 35.8754 105.315 33.4899V17.745C105.315 16.6476 105.122 15.7888 104.735 15.2162C104.348 14.6437 103.672 14.3574 102.802 14.3574C102.173 14.3574 101.642 14.5006 101.207 14.7868C100.772 15.0731 100.337 15.5025 99.9018 16.0273L89.6555 28.337V17.9358C89.6555 15.5502 88.7372 14.3574 86.9006 14.3574C85.064 14.3574 84.1457 15.5502 84.1457 17.9358V34.0147C84.1457 35.0166 84.339 35.78 84.7257 36.2571C85.1123 36.7343 85.7406 36.9728 86.6106 36.9728C87.1906 36.9728 87.7706 36.8774 88.2539 36.6388C88.7372 36.4003 89.2688 35.9709 89.8005 35.3029L99.8052 23.2795ZM110.341 17.9358V33.4899C110.341 35.8754 111.26 37.0682 113.096 37.0682C114.933 37.0682 115.851 35.8754 115.851 33.4899V28.2416L116.818 27.5259L124.116 35.2552C124.599 35.8277 125.083 36.2571 125.518 36.5434C125.953 36.8774 126.484 37.0205 127.113 37.0205C127.693 37.0205 128.273 36.782 128.853 36.3526C129.384 35.9232 129.674 35.3506 129.674 34.6826C129.674 34.0147 129.191 33.1559 128.273 32.1539L120.829 24.5677L126.436 19.5103C127.354 18.6515 127.983 18.0789 128.224 17.6973C128.466 17.3633 128.611 17.0293 128.611 16.6953C128.611 16.0751 128.321 15.5025 127.789 15.0254C127.209 14.5483 126.581 14.3097 125.904 14.3097C125.421 14.3097 124.938 14.5006 124.406 14.8345C123.923 15.1685 123.391 15.5979 122.859 16.1228L115.803 22.7547V17.9358C115.803 15.5502 114.885 14.3574 113.048 14.3574C111.26 14.3574 110.341 15.5502 110.341 17.9358ZM131.752 25.7128C131.752 27.4305 132.042 29.0049 132.574 30.3886C133.154 31.7722 133.927 32.965 134.942 33.967C135.957 34.9689 137.166 35.7323 138.616 36.2571C140.017 36.782 141.612 37.0682 143.4 37.0682C145.14 37.0682 146.735 36.782 148.185 36.2571C149.635 35.7323 150.844 34.9689 151.858 33.967C152.873 32.965 153.647 31.7722 154.178 30.3886C154.71 29.0049 155 27.4305 155 25.7128C155 23.9952 154.71 22.4207 154.178 21.0371C153.598 19.6534 152.825 18.4606 151.81 17.4587C150.795 16.4567 149.539 15.6934 148.137 15.1685C146.735 14.6437 145.14 14.3574 143.4 14.3574C141.66 14.3574 140.114 14.6437 138.664 15.1685C137.262 15.6934 136.006 16.4567 134.991 17.4587C133.976 18.4606 133.154 19.6534 132.622 21.0371C132.042 22.4684 131.752 23.9952 131.752 25.7128ZM137.649 25.8083C137.649 23.7089 138.181 22.039 139.244 20.7985C140.307 19.6057 141.709 18.9855 143.4 18.9855C145.14 18.9855 146.542 19.6057 147.605 20.7985C148.669 21.9913 149.2 23.6612 149.2 25.8083C149.2 27.8599 148.669 29.4821 147.557 30.6271C146.494 31.8199 145.092 32.3925 143.4 32.3925C141.709 32.3925 140.307 31.8199 139.244 30.6271C138.181 29.4821 137.649 27.8599 137.649 25.8083Z" fill="black" stroke="black" stroke-width="0.216" stroke-miterlimit="22.9256"/>
<path fill-rule="evenodd" clip-rule="evenodd" d="M45.9634 28.8141C45.0451 28.8141 44.2718 28.337 43.5468 27.4305L41.0819 24.2815V34.3964C41.0819 35.4461 40.7436 36.2572 40.1153 36.8297C39.4386 37.4022 38.7137 37.6885 37.8437 37.6885C36.9254 37.6885 36.1521 37.4022 35.4754 36.8774C34.7988 36.3526 34.5088 35.4938 34.5088 34.4441V17.2679C34.5088 16.743 34.6055 16.2659 34.7988 15.7888C34.9921 15.3594 35.2338 14.9777 35.5721 14.6914C35.9104 14.4052 36.2487 14.1666 36.6837 14.0235C37.1187 13.8803 37.5537 13.7849 37.9887 13.7849C38.5687 13.7849 39.1486 13.928 39.777 14.2143C40.3569 14.5006 40.8886 14.8823 41.3236 15.4548L46.0117 21.4188L50.7483 15.4548C51.1832 14.93 51.6666 14.5006 52.2465 14.2143C52.8265 13.928 53.4065 13.7849 53.9865 13.7849C54.4215 13.7849 54.8565 13.8803 55.2914 14.0235C55.7264 14.1666 56.0648 14.4052 56.4031 14.6914C56.7414 14.9777 56.9831 15.3594 57.1764 15.7888C57.3697 16.2182 57.4664 16.6953 57.4664 17.2679V34.4441C57.4664 35.5415 57.1281 36.3526 56.4997 36.8774C55.8231 37.4022 55.0498 37.6885 54.1315 37.6885C53.2615 37.6885 52.4882 37.4022 51.8116 36.8774C51.1832 36.3526 50.8449 35.4938 50.8449 34.4441V24.2815L48.4283 27.4305C48.0417 27.9553 47.655 28.2893 47.22 28.5279C46.8817 28.7187 46.4467 28.8141 45.9634 28.8141Z" fill="black"/>
</g>
<defs>
<clipPath id="clip0">
<rect width="155" height="49" fill="white"/>
</clipPath>
</defs>
</svg>
