<svg width="8" height="5" viewBox="0 0 8 5" fill="none" xmlns="http://www.w3.org/2000/svg">
<path fill-rule="evenodd" clip-rule="evenodd" d="M4.6208 4.44405L7.8668 1.21005C7.95219 1.12262 8 1.00526 8 0.883046C8 0.760836 7.95219 0.643474 7.8668 0.556046C7.77938 0.470656 7.66201 0.422852 7.5398 0.422852C7.41759 0.422852 7.30023 0.470656 7.2128 0.556046L4.2998 3.46905L1.3868 0.556046C1.29937 0.470656 1.18201 0.422852 1.0598 0.422852C0.937594 0.422852 0.820232 0.470656 0.732803 0.556046C0.647413 0.643474 0.599609 0.760836 0.599609 0.883046C0.599609 1.00526 0.647413 1.12262 0.732803 1.21005L3.9678 4.44405C4.05519 4.52914 4.17234 4.57675 4.2943 4.57675C4.41627 4.57675 4.53342 4.52914 4.6208 4.44405Z" fill="#C4C4C4"/>
</svg>
